HIERARCHY
ROOT newVegas:Hips
{
	OFFSET 0.000000 96.479958 0.000000
	CHANNELS 6 Xposition Yposition Zposition Xrotation Yrotation Zrotation
	JOINT newVegas:Pelvis
	{
		OFFSET 0.000000 0.000000 0.000000
		CHANNELS 3 Xrotation Yrotation Zrotation
		JOINT newVegas:LeftUpLeg
		{
			OFFSET 18.735201 -5.666702 -4.541200
			CHANNELS 3 Xrotation Yrotation Zrotation
			JOINT newVegas:LeftLeg
			{
				OFFSET -0.021200 -31.938179 0.493100
				CHANNELS 3 Xrotation Yrotation Zrotation
				JOINT newVegas:LeftFoot
				{
					OFFSET 0.021200 -31.938179 -4.336299
					CHANNELS 3 Xrotation Yrotation Zrotation
					JOINT newVegas:LeftToeBase
					{
						OFFSET 0.943001 -26.722000 15.023500
						CHANNELS 3 Xrotation Yrotation Zrotation
						End Site
						{
							OFFSET 0.000000 30.670183 0.000000
						}
					}
				}
				JOINT newVegas:Left_PantLeg
				{
					OFFSET 0.663870 -9.044666 -1.108900
					CHANNELS 3 Xrotation Yrotation Zrotation
					End Site
					{
						OFFSET 1.415995 20.635357 0.000000
					}
				}
			}
		}
		JOINT newVegas:RightUpLeg
		{
			OFFSET -18.735201 -5.666702 -4.541200
			CHANNELS 3 Xrotation Yrotation Zrotation
			JOINT newVegas:RightLeg
			{
				OFFSET 0.018946 -31.938133 0.493100
				CHANNELS 3 Xrotation Yrotation Zrotation
				JOINT newVegas:RightFoot
				{
					OFFSET -0.018946 -31.938126 -4.336299
					CHANNELS 3 Xrotation Yrotation Zrotation
					JOINT newVegas:RightToeBase
					{
						OFFSET -0.943001 -26.722004 15.023500
						CHANNELS 3 Xrotation Yrotation Zrotation
						End Site
						{
							OFFSET 0.000000 30.670187 0.000000
						}
					}
				}
				JOINT newVegas:Right_PantLeg
				{
					OFFSET -0.661674 -9.044716 -1.108900
					CHANNELS 3 Xrotation Yrotation Zrotation
					End Site
					{
						OFFSET -1.415958 20.635269 0.000000
					}
				}
			}
		}
	}
	JOINT newVegas:Spine
	{
		OFFSET 0.000000 10.199997 -0.299500
		CHANNELS 3 Xrotation Yrotation Zrotation
		JOINT newVegas:Spine1
		{
			OFFSET 0.000000 11.900002 -1.516600
			CHANNELS 3 Xrotation Yrotation Zrotation
			JOINT newVegas:Spine2
			{
				OFFSET 0.000000 13.600006 -2.842500
				CHANNELS 3 Xrotation Yrotation Zrotation
				JOINT newVegas:Neck
				{
					OFFSET 0.000000 9.624100 -2.890100
					CHANNELS 3 Xrotation Yrotation Zrotation
					JOINT newVegas:Head
					{
						OFFSET 0.000000 14.068802 -1.351900
						CHANNELS 3 Xrotation Yrotation Zrotation
						JOINT newVegas:Hair_Back
						{
							OFFSET 0.000000 3.231903 -17.524799
							CHANNELS 3 Xrotation Yrotation Zrotation
							End Site
							{
								OFFSET 0.000000 19.849884 0.000000
							}
						}
						JOINT newVegas:Hair_Front
						{
							OFFSET 0.000000 31.260406 4.573800
							CHANNELS 3 Xrotation Yrotation Zrotation
							JOINT newVegas:Hair_Front1
							{
								OFFSET 0.000000 2.284103 11.993300
								CHANNELS 3 Xrotation Yrotation Zrotation
								JOINT newVegas:Hair_Front2
								{
									OFFSET 0.000000 2.284103 11.993300
									CHANNELS 3 Xrotation Yrotation Zrotation
									End Site
									{
										OFFSET 0.000000 12.208862 0.000000
									}
								}
							}
						}
						JOINT newVegas:Jowel
						{
							OFFSET 0.000000 -7.458206 6.864100
							CHANNELS 3 Xrotation Yrotation Zrotation
							End Site
							{
								OFFSET 0.000000 19.849884 0.000000
							}
						}
					}
				}
				JOINT newVegas:LeftShoulder
				{
					OFFSET 15.263000 10.923401 -0.547700
					CHANNELS 3 Xrotation Yrotation Zrotation
					JOINT newVegas:LeftArm
					{
						OFFSET 25.438599 -2.830597 -13.032500
						CHANNELS 3 Xrotation Yrotation Zrotation
						JOINT newVegas:LeftForeArm
						{
							OFFSET 29.960503 0.000000 0.000000
							CHANNELS 3 Xrotation Yrotation Zrotation
							JOINT newVegas:LeftHand
							{
								OFFSET 27.849251 0.000000 0.000000
								CHANNELS 3 Xrotation Yrotation Zrotation
								JOINT newVegas:LeftHandThumb1
								{
									OFFSET 4.487587 -3.305161 6.305391
									CHANNELS 3 Xrotation Yrotation Zrotation
									JOINT newVegas:LeftHandThumb2
									{
										OFFSET 5.480453 -3.164139 3.164143
										CHANNELS 3 Xrotation Yrotation Zrotation
										JOINT newVegas:LeftHandThumb3
										{
											OFFSET 5.159721 -2.978973 2.978967
											CHANNELS 3 Xrotation Yrotation Zrotation
											End Site
											{
												OFFSET 2.494507 5.926697 1.738678
											}
										}
									}
								}
								JOINT newVegas:LeftHandIndex1
								{
									OFFSET 18.578728 -0.527832 5.208049
									CHANNELS 3 Xrotation Yrotation Zrotation
									JOINT newVegas:LeftHandIndex2
									{
										OFFSET 3.192009 0.000000 0.000000
										CHANNELS 3 Xrotation Yrotation Zrotation
										JOINT newVegas:LeftHandIndex3
										{
											OFFSET 3.835129 0.000000 0.000000
											CHANNELS 3 Xrotation Yrotation Zrotation
											End Site
											{
												OFFSET -0.034599 3.816971 0.371180
											}
										}
									}
								}
								JOINT newVegas:LeftHandMiddle1
								{
									OFFSET 18.476105 0.000000 0.000000
									CHANNELS 3 Xrotation Yrotation Zrotation
									JOINT newVegas:LeftHandMiddle2
									{
										OFFSET 3.324875 0.000000 0.000000
										CHANNELS 3 Xrotation Yrotation Zrotation
										JOINT newVegas:LeftHandMiddle3
										{
											OFFSET 4.596550 0.000000 0.000000
											CHANNELS 3 Xrotation Yrotation Zrotation
											End Site
											{
												OFFSET 0.057701 4.578827 0.399218
											}
										}
									}
								}
								JOINT newVegas:LeftHandRing1
								{
									OFFSET 17.732719 0.121887 -4.201567
									CHANNELS 3 Xrotation Yrotation Zrotation
									JOINT newVegas:LeftHandRing2
									{
										OFFSET 2.733170 0.000000 0.000000
										CHANNELS 3 Xrotation Yrotation Zrotation
										JOINT newVegas:LeftHandRing3
										{
											OFFSET 3.178268 0.000000 0.000000
											CHANNELS 3 Xrotation Yrotation Zrotation
											End Site
											{
												OFFSET 0.119102 3.170624 0.185394
											}
										}
									}
								}
								JOINT newVegas:LeftHandPinky1
								{
									OFFSET 15.989624 -0.606689 -7.535461
									CHANNELS 3 Xrotation Yrotation Zrotation
									JOINT newVegas:LeftHandPinky2
									{
										OFFSET 2.538986 0.000000 0.000000
										CHANNELS 3 Xrotation Yrotation Zrotation
										JOINT newVegas:LeftHandPinky3
										{
											OFFSET 2.593102 0.000000 0.000000
											CHANNELS 3 Xrotation Yrotation Zrotation
											End Site
											{
												OFFSET -0.150902 2.584198 0.152708
											}
										}
									}
								}
							}
							JOINT newVegas:Left_Sleeve
							{
								OFFSET 0.267448 -0.649796 0.577675
								CHANNELS 3 Xrotation Yrotation Zrotation
								End Site
								{
									OFFSET 0.000000 15.991241 0.000000
								}
							}
							JOINT newVegas:Left_CapeC
							{
								OFFSET 15.715958 -8.608795 -6.935905
								CHANNELS 3 Xrotation Yrotation Zrotation
								JOINT newVegas:Left_CapeC1
								{
									OFFSET 0.000000 -8.688499 0.000000
									CHANNELS 3 Xrotation Yrotation Zrotation
									End Site
									{
										OFFSET 0.000000 8.688499 0.000000
									}
								}
							}
						}
						JOINT newVegas:Left_CapeB
						{
							OFFSET 26.118385 -8.608795 -7.079235
							CHANNELS 3 Xrotation Yrotation Zrotation
							JOINT newVegas:Left_CapeB1
							{
								OFFSET 0.000000 -8.688499 0.000000
								CHANNELS 3 Xrotation Yrotation Zrotation
								End Site
								{
									OFFSET 0.000000 8.688499 0.000000
								}
							}
						}
						JOINT newVegas:Left_CapeA
						{
							OFFSET 5.115639 -8.608795 -10.395809
							CHANNELS 3 Xrotation Yrotation Zrotation
							JOINT newVegas:Left_CapeA1
							{
								OFFSET 0.000000 -8.688499 0.000000
								CHANNELS 3 Xrotation Yrotation Zrotation
								End Site
								{
									OFFSET 0.000000 8.688499 0.000000
								}
							}
						}
					}
				}
				JOINT newVegas:RightShoulder
				{
					OFFSET -15.263000 10.923401 -0.547700
					CHANNELS 3 Xrotation Yrotation Zrotation
					JOINT newVegas:RightArm
					{
						OFFSET -25.438599 -2.830597 -13.032500
						CHANNELS 3 Xrotation Yrotation Zrotation
						JOINT newVegas:RightForeArm
						{
							OFFSET -29.960503 0.000000 0.000000
							CHANNELS 3 Xrotation Yrotation Zrotation
							JOINT newVegas:RightHand
							{
								OFFSET -27.849251 0.000000 0.000000
								CHANNELS 3 Xrotation Yrotation Zrotation
								JOINT newVegas:RightHandThumb1
								{
									OFFSET -4.487587 -3.305161 6.305391
									CHANNELS 3 Xrotation Yrotation Zrotation
									JOINT newVegas:RightHandThumb2
									{
										OFFSET -5.480453 -3.164139 3.164143
										CHANNELS 3 Xrotation Yrotation Zrotation
										JOINT newVegas:RightHandThumb3
										{
											OFFSET -5.159721 -2.978973 2.978967
											CHANNELS 3 Xrotation Yrotation Zrotation
											End Site
											{
												OFFSET -2.494507 5.926697 1.738678
											}
										}
									}
								}
								JOINT newVegas:RightHandIndex1
								{
									OFFSET -18.578728 -0.527832 5.208049
									CHANNELS 3 Xrotation Yrotation Zrotation
									JOINT newVegas:RightHandIndex2
									{
										OFFSET -3.192009 0.000000 0.000000
										CHANNELS 3 Xrotation Yrotation Zrotation
										JOINT newVegas:RightHandIndex3
										{
											OFFSET -3.835129 0.000000 0.000000
											CHANNELS 3 Xrotation Yrotation Zrotation
											End Site
											{
												OFFSET 0.034599 3.816971 0.371180
											}
										}
									}
								}
								JOINT newVegas:RightHandMiddle1
								{
									OFFSET -18.476105 0.000000 0.000000
									CHANNELS 3 Xrotation Yrotation Zrotation
									JOINT newVegas:RightHandMiddle2
									{
										OFFSET -3.324875 0.000000 0.000000
										CHANNELS 3 Xrotation Yrotation Zrotation
										JOINT newVegas:RightHandMiddle3
										{
											OFFSET -4.596550 0.000000 0.000000
											CHANNELS 3 Xrotation Yrotation Zrotation
											End Site
											{
												OFFSET -0.057701 4.578827 0.399218
											}
										}
									}
								}
								JOINT newVegas:RightHandRing1
								{
									OFFSET -17.732719 0.121887 -4.201567
									CHANNELS 3 Xrotation Yrotation Zrotation
									JOINT newVegas:RightHandRing2
									{
										OFFSET -2.733170 0.000000 0.000000
										CHANNELS 3 Xrotation Yrotation Zrotation
										JOINT newVegas:RightHandRing3
										{
											OFFSET -3.178268 0.000000 0.000000
											CHANNELS 3 Xrotation Yrotation Zrotation
											End Site
											{
												OFFSET -0.119102 3.170624 0.185394
											}
										}
									}
								}
								JOINT newVegas:RightHandPinky1
								{
									OFFSET -15.989624 -0.606689 -7.535461
									CHANNELS 3 Xrotation Yrotation Zrotation
									JOINT newVegas:RightHandPinky2
									{
										OFFSET -2.538986 0.000000 0.000000
										CHANNELS 3 Xrotation Yrotation Zrotation
										JOINT newVegas:RightHandPinky3
										{
											OFFSET -2.593102 0.000000 0.000000
											CHANNELS 3 Xrotation Yrotation Zrotation
											End Site
											{
												OFFSET 0.150902 2.584198 0.152708
											}
										}
									}
								}
							}
							JOINT newVegas:Right_CapeC
							{
								OFFSET -15.715958 -8.608795 -6.935905
								CHANNELS 3 Xrotation Yrotation Zrotation
								JOINT newVegas:Right_CapeC1
								{
									OFFSET 0.000000 -8.688499 0.000000
									CHANNELS 3 Xrotation Yrotation Zrotation
									End Site
									{
										OFFSET 0.000000 8.688499 0.000000
									}
								}
							}
							JOINT newVegas:Right_Sleeve
							{
								OFFSET -0.267448 -0.649994 0.577675
								CHANNELS 3 Xrotation Yrotation Zrotation
								End Site
								{
									OFFSET 0.000000 15.991302 0.000000
								}
							}
						}
						JOINT newVegas:Right_CapeA
						{
							OFFSET -5.115540 -8.608795 -10.395824
							CHANNELS 3 Xrotation Yrotation Zrotation
							JOINT newVegas:Right_CapeA1
							{
								OFFSET 0.000000 -8.688499 0.000000
								CHANNELS 3 Xrotation Yrotation Zrotation
								End Site
								{
									OFFSET 0.000000 8.688499 0.000000
								}
							}
						}
						JOINT newVegas:Right_CapeB
						{
							OFFSET -26.118187 -8.608795 -7.079266
							CHANNELS 3 Xrotation Yrotation Zrotation
							JOINT newVegas:Right_CapeB1
							{
								OFFSET 0.000000 -8.688499 0.000000
								CHANNELS 3 Xrotation Yrotation Zrotation
								End Site
								{
									OFFSET 0.000000 8.688499 0.000000
								}
							}
						}
					}
				}
				JOINT newVegas:Left_Collar
				{
					OFFSET 18.625099 8.655502 8.828100
					CHANNELS 3 Xrotation Yrotation Zrotation
					JOINT newVegas:Left_Collar1
					{
						OFFSET 14.783401 10.540405 -1.259500
						CHANNELS 3 Xrotation Yrotation Zrotation
						End Site
						{
							OFFSET 0.000000 18.199875 0.000000
						}
					}
				}
				JOINT newVegas:Collar_Back
				{
					OFFSET 0.000000 15.630707 -20.132601
					CHANNELS 3 Xrotation Yrotation Zrotation
					End Site
					{
						OFFSET 0.000000 22.523010 0.000000
					}
				}
				JOINT newVegas:Left_Peck
				{
					OFFSET 17.239599 -5.132599 25.482599
					CHANNELS 3 Xrotation Yrotation Zrotation
					End Site
					{
						OFFSET 0.000000 22.523010 0.000000
					}
				}
				JOINT newVegas:Right_Peck
				{
					OFFSET -17.239599 -5.132202 25.482599
					CHANNELS 3 Xrotation Yrotation Zrotation
					End Site
					{
						OFFSET 0.000000 22.523010 0.000000
					}
				}
				JOINT newVegas:Right_Collar
				{
					OFFSET -18.625099 8.655792 8.828100
					CHANNELS 3 Xrotation Yrotation Zrotation
					JOINT newVegas:Right_Collar1
					{
						OFFSET -14.783401 10.539993 -1.259500
						CHANNELS 3 Xrotation Yrotation Zrotation
						End Site
						{
							OFFSET 0.000000 18.199631 0.000000
						}
					}
				}
			}
		}
		JOINT newVegas:Belly
		{
			OFFSET 0.000000 -6.540398 9.014299
			CHANNELS 3 Xrotation Yrotation Zrotation
			End Site
			{
				OFFSET 0.000000 11.566666 0.000000
			}
		}
	}
	JOINT newVegas:ElvisFacialAnim_Joint
	{
		OFFSET 1.000000 -95.330101 -8.825800
		CHANNELS 3 Xrotation Yrotation Zrotation
		End Site
		{
			OFFSET 0.000000 35.315800 0.000000
		}
	}
}
MOTION
Frames: 4
Frame Time: 0.033333
1.779366 84.349823 443.645081 17.497001 -12.038984 -12.456552 -0.000000 -0.000001 -0.000001 -1.190447 6.915869 6.816164 29.753103 -2.347558 0.846544 25.673868 -1.805711 -8.883887 0.000002 0.000000 -0.000000 -0.000000 0.000000 0.000001 -90.698663 -17.582422 8.701776 86.093025 -6.679697 3.939269 0.145465 0.747728 -5.499823 0.000000 0.000001 0.000000 -0.000001 -0.000001 -0.000001 3.993136 -4.437629 2.071856 8.159522 -8.103261 4.398143 8.159525 -8.103265 4.398146 3.218833 0.221037 -0.583877 3.218771 0.221038 -0.583889 -0.000000 -0.000002 -0.000000 3.218937 0.220978 -0.583868 3.218725 0.221068 -0.583877 0.000002 0.000001 0.000001 -0.000000 -0.000002 -0.000000 13.699396 4.539030 -6.497983 -22.628827 -18.751325 -23.949722 19.838645 -84.156468 6.298024 6.701971 22.565232 4.339119 2.050380 4.597133 2.217053 -12.198166 7.993588 -6.252549 -0.000000 -0.000001 -0.000006 -0.288838 -1.466714 -15.899086 -0.417679 0.208417 -22.577586 0.000001 -0.000002 -0.000000 -0.584014 -0.572527 -25.073939 -0.824494 -1.809194 -25.004914 -0.000002 0.000002 0.000001 -0.394622 6.412919 -31.934993 -0.319068 -2.555724 -28.690920 -0.000002 0.000001 0.000000 0.102227 12.074985 -35.345672 -0.472140 -5.972920 -43.941879 0.000001 -0.000007 -0.000000 -0.000000 -0.000003 0.000001 -0.000000 -0.000003 0.000001 -0.000001 -0.000002 0.000001 0.000002 -0.000001 -0.000001 0.000002 -0.000000 -0.000003 0.000002 -0.000001 -0.000001 0.000001 0.000000 -0.000000 6.255839 0.839277 -17.942683 -65.719213 16.508789 18.266081 -387.285769 144.991734 362.022538 -4.349365 21.588992 -37.300449 -14.857876 -14.596804 -3.897076 -1.174114 -3.421476 -6.673992 -0.000001 -0.000002 0.000003 -1.539988 0.030813 4.246318 -0.492041 -1.146571 19.014004 -0.000001 -0.000000 -0.000001 -1.445877 -1.439132 7.212298 -0.672706 0.193457 12.229427 -0.000003 0.000000 0.000000 1.944870 -7.410617 14.845336 0.194647 2.085968 14.387259 -0.000003 0.000001 -0.000000 4.530086 -13.188875 12.361832 0.045820 7.209872 23.574294 -0.000001 0.000002 -0.000001 0.000002 -0.000000 -0.000000 0.000002 -0.000001 -0.000001 0.000002 -0.000001 -0.000000 0.000002 0.000000 -0.000002 0.000002 0.000001 -0.000002 0.000002 0.000000 -0.000002 0.000002 0.000001 -0.000002 0.000001 0.000002 0.000002 0.000001 0.000002 0.000002 0.000001 0.000002 0.000002 0.000001 0.000002 0.000002 0.000001 0.000002 0.000002 0.000001 0.000002 0.000002 0.000001 0.000002 0.000002 0.000001 0.000001 -0.000001 -0.000000 -0.000001 -0.000001 
1.815998 82.994484 459.559387 18.421234 -12.129969 -11.660728 0.000000 0.000000 -0.000000 -1.722111 4.399362 3.657577 34.153514 -9.077398 0.997309 45.564988 -2.776440 -8.615314 0.000001 0.000001 0.000000 -0.000001 -0.000000 -0.000000 -82.855201 -14.787722 10.926994 64.897063 -6.919099 3.993842 -1.303233 -0.462627 3.891688 0.000000 -0.000000 -0.000000 0.000000 -0.000001 -0.000000 3.695439 -4.413628 2.672085 7.429846 -8.187811 3.981217 7.429839 -8.187803 3.981214 2.941969 0.565638 -0.984657 2.941911 0.565662 -0.984677 -0.000002 0.000000 0.000001 2.941954 0.565566 -0.984641 2.942141 0.565744 -0.984679 0.000002 -0.000001 -0.000000 -0.000002 0.000000 0.000001 15.517189 3.844859 -10.594867 -27.525353 -20.974229 -32.177947 -23.806194 -96.991329 -34.730685 11.347008 18.366259 4.731193 5.106252 4.994132 0.982377 -10.540054 7.597009 -5.272733 -0.000000 -0.000005 -0.000005 -0.458476 -1.969971 -21.249384 -0.907837 -0.751803 -31.421281 0.000001 -0.000000 -0.000000 -0.931947 -1.141731 -31.865421 -1.295003 -2.586202 -33.333167 0.000002 0.000000 0.000000 -0.705348 5.977852 -39.556306 -0.588753 -2.971439 -36.836706 -0.000002 0.000003 0.000001 -0.148398 11.771912 -42.578351 -0.616159 -6.099570 -52.922806 0.000000 -0.000002 0.000003 0.000001 0.000001 0.000002 0.000001 0.000001 0.000002 0.000000 0.000001 0.000002 0.000002 -0.000003 -0.000001 0.000002 -0.000003 -0.000003 0.000002 -0.000003 -0.000001 0.000001 -0.000003 -0.000000 6.577363 5.260400 -14.450973 -60.628871 14.946494 25.743225 -382.436717 144.590228 361.157891 -1.747391 24.137549 -40.073615 -21.713762 -8.861607 -6.710146 -8.480076 -6.087322 7.512193 0.000003 -0.000003 -0.000001 -1.510578 -0.118141 2.136354 -0.419401 -1.313052 17.365351 0.000003 0.000000 -0.000002 -1.409970 -1.621013 4.672529 -0.629464 0.067405 10.914408 0.000002 -0.000001 0.000001 1.989440 -7.626358 12.219965 0.201590 1.999034 13.233325 0.000001 0.000001 0.000001 4.653889 -13.296128 10.101573 0.087580 7.043369 21.000788 0.000000 0.000003 -0.000000 0.000000 0.000002 -0.000000 -0.000000 0.000001 -0.000001 0.000000 0.000001 0.000001 -0.000001 0.000000 0.000000 -0.000001 0.000000 0.000000 -0.000001 0.000000 0.000000 -0.000001 -0.000000 0.000000 0.000003 0.000000 0.000001 0.000003 0.000000 0.000001 0.000003 0.000000 0.000001 0.000003 0.000000 0.000001 0.000003 0.000000 0.000001 0.000003 0.000000 0.000001 0.000003 0.000000 0.000001 -0.000000 0.000000 -0.000000 0.000000 0.000000 -0.000000 
2.106994 81.901245 475.990814 15.463299 -11.423939 -10.202196 0.000000 0.000001 0.000001 3.912200 3.626436 1.549528 39.082438 -8.049924 1.752399 59.671599 -1.901045 -7.703489 -0.000000 0.000000 -0.000001 -0.000000 0.000000 -0.000000 -72.482111 -14.978251 12.739208 50.662983 -9.405738 0.496020 8.763683 -0.503534 0.686505 0.000000 -0.000001 0.000000 -0.000000 0.000001 -0.000002 4.408817 -3.890042 2.824728 8.746877 -6.490730 3.140549 8.746879 -6.490734 3.140547 2.470206 0.776403 -1.479371 2.470211 0.776404 -1.479378 -0.000002 -0.000001 0.000002 2.470206 0.776412 -1.479378 2.470438 0.776341 -1.479369 0.000000 0.000002 0.000000 -0.000002 -0.000001 0.000001 16.499835 0.056455 -14.048255 -28.915384 -20.218579 -38.353486 -22.892557 -102.574087 -32.466157 15.920923 8.916706 14.980686 4.506152 5.645270 -0.490806 -7.652538 8.171395 -2.291546 0.000003 0.000000 -0.000004 -0.700980 -2.550821 -25.137686 -1.692223 -1.695853 -40.154337 -0.000004 0.000005 -0.000001 -1.327357 -1.580901 -36.873415 -1.915345 -3.325676 -40.334866 -0.000000 -0.000000 0.000003 -0.917576 5.890736 -45.645410 -0.739324 -3.178260 -43.568595 0.000000 0.000001 0.000002 -0.295020 12.176097 -47.472793 -0.454427 -5.933929 -59.994654 -0.000001 -0.000005 -0.000002 0.000001 0.000003 0.000004 0.000001 0.000003 0.000004 0.000000 0.000003 0.000004 -0.000001 -0.000001 0.000003 -0.000000 -0.000001 0.000003 -0.000001 -0.000001 0.000003 -0.000002 -0.000000 0.000003 6.069192 7.079028 -10.871789 -52.950570 10.561797 26.598206 -375.527707 141.446510 359.107277 -1.971017 26.430122 -41.698260 -24.879649 -6.143204 -6.556621 -11.220350 -9.316058 14.791162 0.000002 -0.000002 0.000001 -1.262404 -0.023687 0.677293 -0.051902 -1.402269 14.615575 -0.000001 0.000000 0.000003 -1.208290 -1.584614 2.465570 -0.301461 -0.040070 9.005789 0.000002 0.000002 0.000003 1.571077 -7.701914 8.771102 -0.001524 1.749222 11.156162 -0.000000 -0.000001 0.000001 4.143420 -12.811505 7.140027 -0.355420 6.344491 16.740828 0.000000 0.000003 0.000004 -0.000001 -0.000001 0.000003 -0.000001 -0.000004 0.000002 -0.000001 -0.000001 0.000003 -0.000000 0.000000 -0.000000 -0.000000 0.000000 -0.000000 -0.000000 0.000000 -0.000000 -0.000000 -0.000000 -0.000000 0.000002 0.000001 0.000002 0.000002 0.000001 0.000002 0.000002 0.000001 0.000002 0.000002 0.000001 0.000002 0.000002 0.000001 0.000002 0.000002 0.000001 0.000002 0.000002 0.000001 0.000002 0.000000 -0.000000 0.000001 0.000000 0.000001 0.000001 
2.717269 82.589264 492.943665 10.404821 -10.224860 -8.736982 -0.000000 0.000000 0.000000 -6.900004 3.682879 6.809886 71.072626 0.719302 2.238189 49.755357 4.038996 -9.218831 0.000001 0.000000 0.000000 -0.000001 0.000000 -0.000000 -56.222596 -14.228831 14.596451 41.358947 -9.918798 -3.263105 7.747891 -0.590662 -5.479354 0.000000 -0.000001 0.000000 0.000001 0.000001 -0.000001 6.056215 -2.486327 2.855880 12.060573 -3.643161 3.115402 12.060588 -3.643163 3.115401 1.725549 0.806267 -1.906477 1.725545 0.806262 -1.906441 -0.000000 0.000002 -0.000000 1.725329 0.806429 -1.906505 1.725719 0.806121 -1.906455 0.000001 -0.000001 -0.000000 -0.000000 0.000002 -0.000000 15.549554 -3.215863 -14.075592 -16.923223 -12.150559 -35.760483 -22.292001 -104.314966 -29.597071 18.666854 -2.537387 23.997605 3.460251 4.586855 1.844727 -3.251931 11.190503 0.164026 0.000001 -0.000001 -0.000001 -1.606309 -4.128672 -30.172313 -3.797250 -2.915016 -52.950792 0.000001 0.000000 -0.000000 -2.487168 -2.181878 -44.589995 -3.808482 -4.556257 -51.175749 -0.000003 -0.000002 0.000000 -0.681935 6.551812 -55.005166 -0.451349 -3.212830 -53.820859 -0.000003 0.000001 0.000003 0.450860 14.980910 -54.961125 1.256303 -5.223936 -70.491500 -0.000001 -0.000003 -0.000003 0.000001 0.000001 -0.000000 0.000001 0.000001 -0.000000 0.000001 0.000001 0.000000 0.000001 -0.000001 -0.000003 0.000001 -0.000002 -0.000003 0.000001 -0.000001 -0.000003 0.000000 -0.000002 -0.000003 5.143853 8.989636 -10.566586 -42.874163 6.938626 28.530566 -367.793912 135.235970 356.367907 -2.749253 26.225666 -34.743608 -23.032093 -5.591049 -2.985540 -11.398192 -12.458167 15.576183 0.000001 0.000002 0.000001 -0.752861 0.592202 2.770698 0.602959 -1.190908 12.891157 0.000001 0.000001 0.000005 -0.805528 -1.083902 3.256991 0.330589 0.092248 8.878275 -0.000000 0.000001 0.000002 0.619236 -7.390644 6.138809 -0.495015 1.508944 10.327272 0.000001 -0.000001 -0.000001 2.991305 -11.322512 4.912231 -1.456842 5.191736 11.243526 -0.000000 0.000003 -0.000002 -0.000002 0.000003 0.000000 0.000000 0.000003 0.000002 -0.000002 0.000003 0.000001 0.000000 0.000001 -0.000001 0.000000 0.000001 -0.000001 0.000000 0.000001 -0.000001 0.000000 0.000001 -0.000001 -0.000000 -0.000002 0.000001 -0.000000 -0.000002 0.000001 -0.000000 -0.000002 0.000001 -0.000000 -0.000002 0.000001 -0.000000 -0.000002 0.000001 -0.000000 -0.000002 0.000001 -0.000000 -0.000002 0.000001 -0.000002 0.000000 -0.000000 -0.000000 0.000000 0.000000 
